<svg width="24" height="24" viewBox="0 0 24 24" fill="none" xmlns="http://www.w3.org/2000/svg">
<g clip-path="url(#clip0_147_1349)">
<path d="M6.00026 13.0588L7.76497 18.3529C7.9532 18.9176 8.31399 18.8235 8.47085 18.7058L10.9414 16.2352L16.5885 19.7647C18.5031 11.3356 20.2817 4.04647 20.1179 3.17642C19.412 2.47053 1.05905 9.8823 1.76497 11.2941L6.00026 13.0588Z" fill="#332B11"/>
<path fill-rule="evenodd" clip-rule="evenodd" d="M19.5863 3.69359C19.7984 3.60701 20.0199 3.79581 19.968 4.01897L16.4407 19.1865C16.3945 19.3851 16.1594 19.4707 15.9963 19.3484L9.377 14.3839C9.23589 14.2781 9.22528 14.0702 9.3549 13.9506L14.0382 9.62756C14.2101 9.4689 14.2208 9.20095 14.0621 9.02907C13.9035 8.8572 13.6355 8.84648 13.4636 9.00513L8.78035 13.3282C8.2619 13.8067 8.3043 14.6383 8.86877 15.0616L10.4341 16.2356L8.3802 18.2339C8.1933 18.4156 7.88172 18.3349 7.80629 18.0862L7.80625 18.086L6.21497 12.8473C6.14699 12.6235 5.91044 12.4972 5.68663 12.5652C5.68344 12.5661 5.68026 12.5672 5.67711 12.5682L2.43268 11.2163C2.20009 11.1194 2.20129 10.7895 2.43458 10.6943L19.5863 3.69359ZM5.49877 13.4039C5.4739 13.3986 5.44917 13.3909 5.42485 13.3807L2.10689 11.9982C1.17654 11.6106 1.18133 10.2909 2.11448 9.91004L19.2662 2.90935C20.1147 2.56302 21.0006 3.31821 20.793 4.21084L17.2657 19.3783C17.0809 20.1729 16.1406 20.5155 15.488 20.026L11.1201 16.7501L8.97074 18.8411L8.97061 18.8413C8.32953 19.4644 7.25577 19.189 6.99575 18.3322L6.99571 18.3321L5.49877 13.4039Z" fill="#332B11"/>
<path d="M13.7647 9.52942C12 11.2941 9.17651 13.7647 9.17651 14.4706C9.17651 15.6 12.7059 18.8235 13.4118 19.0588" stroke="#908971" stroke-width="0.705882" stroke-linecap="round"/>
</g>
<defs>
<clipPath id="clip0_147_1349">
<rect width="24" height="24" fill="white"/>
</clipPath>
</defs>
</svg>
