<svg width="24" height="24" viewBox="0 0 24 24" fill="none" xmlns="http://www.w3.org/2000/svg">
<path d="M6.9 20.6C8.4 21.5 10.2 22 12 22C17.5 22 22 17.5 22 12C22 6.5 17.5 2 12 2C6.5 2 2 6.5 2 12C2 13.8 2.5 15.5 3.3 17L2.44044 20.306C2.24572 21.0549 2.93892 21.7317 3.68299 21.5191L6.9 20.6Z" fill="#8E8D8A"/>
<path d="M17.6471 14.9982C17.6471 15.1888 17.6047 15.3847 17.5145 15.5753C17.4244 15.7658 17.3077 15.9458 17.154 16.1153C16.8942 16.4011 16.6079 16.6076 16.2844 16.74C15.9663 16.8723 15.6217 16.9411 15.2505 16.9411C14.7097 16.9411 14.1318 16.8141 13.5221 16.5547C12.9123 16.2953 12.3026 15.9458 11.6981 15.5064C11.0884 15.0617 10.5105 14.5694 9.95907 14.0241C9.41296 13.4735 8.91986 12.8964 8.47979 12.2929C8.04502 11.6894 7.69509 11.0858 7.44059 10.4876C7.18609 9.88408 7.05884 9.30702 7.05884 8.75643C7.05884 8.39643 7.12246 8.05232 7.24971 7.73467C7.37696 7.41173 7.57844 7.11526 7.85945 6.85055C8.19878 6.51702 8.56993 6.35291 8.96228 6.35291C9.11074 6.35291 9.2592 6.38467 9.39175 6.4482C9.5296 6.51173 9.65155 6.60702 9.74699 6.74467L10.9771 8.47585C11.0725 8.6082 11.1414 8.72996 11.1892 8.84643C11.2369 8.95761 11.2634 9.06879 11.2634 9.16938C11.2634 9.29643 11.2263 9.42349 11.152 9.54526C11.0831 9.66702 10.9824 9.79408 10.8551 9.92114L10.4522 10.3394C10.3938 10.3976 10.3673 10.4664 10.3673 10.5511C10.3673 10.5935 10.3726 10.6306 10.3832 10.6729C10.3991 10.7153 10.415 10.747 10.4257 10.7788C10.5211 10.9535 10.6855 11.1811 10.9187 11.4564C11.1573 11.7317 11.4118 12.0123 11.6875 12.2929C11.9739 12.5735 12.2496 12.8329 12.5306 13.0711C12.8063 13.3041 13.0343 13.4629 13.2145 13.5582C13.2411 13.5688 13.2729 13.5847 13.31 13.6006C13.3524 13.6164 13.3948 13.6217 13.4425 13.6217C13.5327 13.6217 13.6016 13.59 13.6599 13.5317L14.0629 13.1347C14.1954 13.0023 14.3227 12.9017 14.4446 12.8382C14.5666 12.7641 14.6885 12.727 14.8211 12.727C14.9218 12.727 15.0279 12.7482 15.1445 12.7958C15.2611 12.8435 15.3831 12.9123 15.5156 13.0023L17.2706 14.2464C17.4085 14.3417 17.5039 14.4529 17.5622 14.5853C17.6153 14.7176 17.6471 14.85 17.6471 14.9982Z" fill="#EDE8D5"/>
</svg>
